<?xml version="1.0" encoding="utf-8"?>
<!-- Generator: Adobe Illustrator 22.1.0, SVG Export Plug-In . SVG Version: 6.00 Build 0)  -->
<svg version="1.1" id="Layer_1" xmlns="http://www.w3.org/2000/svg" xmlns:xlink="http://www.w3.org/1999/xlink" x="0px" y="0px"
	 viewBox="0 0 2030 483" style="enable-background:new 0 0 2030 483;" xml:space="preserve">
<style type="text/css">
	.st0{fill:none;}
	.st1{font-family:'AzonixRegular';}
	.st2{font-size:400px;}
</style>
<path d="M342.8,138.7l64.5-68.5l-226.6,0.2v-37h334.1L388.5,183.2H142.4v45.6l-35.1,36.5v-232h33v106"/>
<polygon points="107.2,290.8 107.2,332 222.1,328.2 167.4,397.8 107.2,397.8 107.2,442.4 183,442.4 311,291.1 167,289.2 204,242.1 
	345.4,242.1 380.9,198.6 186.5,198.6 "/>
<polygon points="311,443.7 311,326 217.2,443.7 "/>
<polygon points="429.1,442.4 556.6,442.4 389.8,222.9 326.4,305.4 "/>
<polygon points="274.8,118.5 217.2,118.5 217.2,88.2 287.6,87.5 "/>
<polygon points="291.9,273.3 230.6,273.3 241.5,257.8 297.6,257.8 "/>
<polygon points="430,218.1 504.7,297.4 499.7,148.4 436.7,187.1 "/>
<polygon points="154.2,373.1 130.1,373.1 130.1,352.2 170.8,351.2 "/>
<rect x="788" y="92" class="st0" width="1333" height="483"/>
<text transform="matrix(1 0 0 1 788 371.999)" class="st1 st2">P.S.K</text>
</svg>
